# xmcd
# 
# Track frame offsets:
#     150
#     13583
#     23540
#     31801
#     41799
#     51946
#     61768
#     71862
#     84725
#     95029
#     103239
#     115731
#     126574
#     135977
#     144866
#     153368
#     169738
#     184209
#     198431
#     211928
# 
# Disc length: 2962
# 
# Revision: 0
# Processed by: cddbd v1.5.2PL0 Copyright (c) Steve Scherf et al.
# Submitted via: BonkEnc v1.0.8
# 
DISCID=190b9014
DTITLE=VA - 20 Greatest Western Themes - VA - 20 Greatest Western Themes
DYEAR=2004
DGENRE=Western
TTITLE0=The Good, The Bad And the Ugly
TTITLE1=Ghost Riders In The Sky
TTITLE2=A Fistful Of Dollars
TTITLE3=The Man Who Shot Liberty Valance
TTITLE4=The Hanging Tree
TTITLE5=Streets Of Laredo
TTITLE6=Hang 'Em High
TTITLE7=High Noon (Do Not Forsake Me)
TTITLE8=High Chaparral
TTITLE9=Bonanza
TTITLE10=For a Few Dollars More
TTITLE11=The Big Country
TTITLE12=The Magnificent Seven
TTITLE13=Shenandoah
TTITLE14=Red River Valley
TTITLE15=Once Upon A Time In The West
TTITLE16=Shane
TTITLE17=True Grit
TTITLE18=The Alamo
TTITLE19=How The West Was Won
EXTD=Mario´s Musik
EXTT0=
EXTT1=
EXTT2=
EXTT3=
EXTT4=
EXTT5=
EXTT6=
EXTT7=
EXTT8=
EXTT9=
EXTT10=
EXTT11=
EXTT12=
EXTT13=
EXTT14=
EXTT15=
EXTT16=
EXTT17=
EXTT18=
EXTT19=
PLAYORDER=
